<svg width="48" height="48" viewBox="0 0 48 48" fill="none" xmlns="http://www.w3.org/2000/svg">
<rect width="48" height="48" rx="8" fill="#141414"/>
<path d="M36.3672 36.639C34.7922 36.6015 33.2547 36.6015 31.6797 36.639C31.3422 36.639 31.2672 36.564 31.2672 36.2265C31.2672 33.4515 31.2672 30.639 31.2672 27.864C31.2672 27.2265 31.2297 26.589 31.0422 25.989C30.4797 24.039 28.2297 23.3265 26.6172 24.639C25.7547 25.314 25.4172 26.2515 25.4172 27.3765C25.4172 30.0015 25.4172 32.6265 25.4172 35.2515C25.4172 35.589 25.3797 35.9265 25.4172 36.3015C25.4547 36.6015 25.3047 36.6765 25.0422 36.639C23.4297 36.639 21.8547 36.639 20.2422 36.639C19.9422 36.639 19.8672 36.564 19.8672 36.264C19.9047 33.9015 19.9047 31.539 19.9047 29.139C19.9047 26.214 19.9047 23.289 19.8672 20.4015C19.8672 20.064 19.9422 19.989 20.2422 19.989C21.8547 19.989 23.4297 19.989 25.0422 19.989C25.3422 19.989 25.4172 20.064 25.4172 20.364C25.4172 20.964 25.4172 21.564 25.4172 22.2765C25.5297 22.164 25.5672 22.1265 25.6047 22.089C27.0672 19.9515 29.1297 19.3515 31.5672 19.7265C34.3797 20.1765 36.1797 22.1265 36.6297 25.1265C36.7422 25.839 36.7797 26.5515 36.7797 27.264C36.7797 30.264 36.7797 33.2265 36.7797 36.2265C36.7797 36.5265 36.7047 36.639 36.3672 36.639Z" fill="white"/>
<path d="M16.868 28.314C16.868 30.939 16.868 33.564 16.868 36.189C16.868 36.5265 16.793 36.639 16.4555 36.639C14.8805 36.6015 13.3055 36.639 11.7305 36.639C11.4305 36.639 11.3555 36.564 11.3555 36.264C11.3555 30.9765 11.3555 25.6515 11.3555 20.364C11.3555 20.1015 11.4305 19.989 11.7305 19.989C13.343 19.989 14.9555 19.989 16.568 19.989C16.9055 19.989 16.943 20.1015 16.943 20.4015C16.868 23.0265 16.868 25.6515 16.868 28.314Z" fill="white"/>
<path d="M17.1304 15.639C16.7554 17.139 15.2179 18.0015 13.4554 17.7015C11.5804 17.4015 10.5304 15.564 11.2054 13.764C11.6554 12.639 12.7429 11.964 14.1304 12.0015C16.2304 11.964 17.6179 13.6515 17.1304 15.639Z" fill="white"/>
</svg>
