<svg width="48" height="48" viewBox="0 0 48 48" fill="none" xmlns="http://www.w3.org/2000/svg">
<rect width="48" height="48" rx="8" fill="#141414"/>
<path d="M34.7582 13.8002C34.3232 13.4313 33.64 13.3785 32.9335 13.6621H32.9324C32.1894 13.9602 11.901 22.6626 11.0751 23.0181C10.9249 23.0703 9.61289 23.5598 9.74803 24.6502C9.86867 25.6333 10.9231 26.0405 11.0519 26.0875L16.2098 27.8536C16.552 28.9927 17.8135 33.1954 18.0925 34.0932C18.2665 34.6529 18.5501 35.3883 19.0472 35.5397C19.4833 35.7079 19.9172 35.5542 20.1979 35.3338L23.3513 32.4089L28.442 36.379L28.5632 36.4515C28.9089 36.6046 29.2401 36.6812 29.5562 36.6812C29.8004 36.6812 30.0347 36.6353 30.2586 36.5437C31.0213 36.2305 31.3264 35.5038 31.3582 35.4214L35.1607 15.6567C35.3927 14.6011 35.0702 14.0641 34.7582 13.8002ZM20.7587 28.56L19.0188 33.2L17.2787 27.4L30.6187 17.54L20.7587 28.56Z" fill="white"/>
</svg>
