<svg width="48" height="48" viewBox="0 0 48 48" fill="none" xmlns="http://www.w3.org/2000/svg">
<rect width="48" height="48" rx="8" fill="#141414"/>
<path d="M35.7625 17.8125C35.7625 18.075 35.7625 18.3375 35.7625 18.5625C35.7625 26.325 29.8375 35.2875 19.0375 35.2875C15.7 35.2875 12.625 34.3125 10 32.6625C10.45 32.7 10.9375 32.7375 11.3875 32.7375C14.125 32.7375 16.675 31.8 18.7 30.225C16.1125 30.1875 13.9375 28.4625 13.225 26.1375C13.6 26.2125 13.9375 26.25 14.35 26.25C14.875 26.25 15.4 26.175 15.8875 26.025C13.1875 25.5 11.1625 23.1375 11.1625 20.2875C11.1625 20.25 11.1625 20.25 11.1625 20.2125C11.95 20.6625 12.85 20.925 13.825 20.9625C12.25 19.9125 11.2 18.1125 11.2 16.05C11.2 14.9625 11.5 13.95 11.9875 13.0875C14.875 16.65 19.225 18.975 24.1 19.2375C23.9875 18.825 23.95 18.3375 23.95 17.8875C23.95 14.625 26.575 12 29.8375 12C31.525 12 33.0625 12.7125 34.1125 13.8375C35.4625 13.575 36.7 13.0875 37.8625 12.4125C37.4125 13.8 36.475 14.925 35.275 15.675C36.475 15.525 37.6 15.225 38.65 14.7375C37.9 15.9375 36.925 16.9875 35.7625 17.8125Z" fill="white"/>
</svg>
