<svg width="48" height="48" viewBox="0 0 48 48" fill="none" xmlns="http://www.w3.org/2000/svg">
<rect width="48" height="48" rx="8" fill="#141414"/>
<path fill-rule="evenodd" clip-rule="evenodd" d="M35.7379 13.6425C37.0229 13.9884 38.0361 15.0016 38.3821 16.2866C39.0246 18.6342 38.9999 23.5271 38.9999 23.5271C38.9999 23.5271 38.9999 28.3953 38.3821 30.7429C38.0361 32.0279 37.0229 33.0411 35.7379 33.387C33.3903 34.0048 23.9999 34.0048 23.9999 34.0048C23.9999 34.0048 14.6342 34.0048 12.2619 33.3623C10.9769 33.0164 9.96375 32.0032 9.61779 30.7182C9 28.3953 9 23.5024 9 23.5024C9 23.5024 9 18.6342 9.61779 16.2866C9.96375 15.0016 11.0016 13.9637 12.2619 13.6178C14.6095 13 23.9999 13 23.9999 13C23.9999 13 33.3903 13 35.7379 13.6425ZM28.8206 23.5024L21.0117 27.9999V19.0049L28.8206 23.5024Z" fill="white"/>
</svg>
